<svg xmlns="http://www.w3.org/2000/svg" width="1280" height="340" viewBox="0 0 1280 340" role="img" aria-label="langstage-vscode — chat with your LangGraph and deepagents agent inside VS Code">
  <defs>
    <linearGradient id="bg" x1="0" y1="0" x2="1" y2="1">
      <stop offset="0" stop-color="#0B1221"/>
      <stop offset="1" stop-color="#0E1B2E"/>
    </linearGradient>
    <linearGradient id="accent" x1="0" y1="0" x2="1" y2="0">
      <stop offset="0" stop-color="#2F9BFF"/>
      <stop offset="1" stop-color="#34D6C8"/>
    </linearGradient>
    <radialGradient id="glow" cx="0.82" cy="0.15" r="0.6">
      <stop offset="0" stop-color="#2F9BFF" stop-opacity="0.22"/>
      <stop offset="1" stop-color="#2F9BFF" stop-opacity="0"/>
    </radialGradient>
    <filter id="soft" x="-20%" y="-20%" width="140%" height="140%">
      <feDropShadow dx="0" dy="6" stdDeviation="12" flood-color="#000000" flood-opacity="0.35"/>
    </filter>
  </defs>

  <!-- backdrop -->
  <rect width="1280" height="340" rx="20" fill="url(#bg)"/>
  <rect width="1280" height="340" rx="20" fill="url(#glow)"/>
  <rect x="1" y="1" width="1278" height="338" rx="19" fill="none" stroke="#21314A" stroke-width="1.5"/>

  <!-- ===== left: identity ===== -->
  <!-- @langstage pill -->
  <g transform="translate(72,66)">
    <rect width="158" height="34" rx="17" fill="#0F2C3A" stroke="url(#accent)" stroke-width="1.5"/>
    <circle cx="22" cy="17" r="5" fill="url(#accent)"/>
    <text x="40" y="23" font-family="'SF Mono','JetBrains Mono','Consolas',monospace" font-size="16" fill="#9FE9DF">@langstage</text>
  </g>

  <!-- title -->
  <text x="70" y="178" font-family="'SF Mono','JetBrains Mono','Consolas',monospace" font-size="62" font-weight="700" fill="#F2F6FC" letter-spacing="-1">langstage<tspan fill="url(#accent)">-vscode</tspan></text>

  <!-- tagline -->
  <text x="72" y="224" font-family="'Segoe UI',Helvetica,Arial,sans-serif" font-size="22" fill="#9DB2C8">Chat with your LangGraph &#183; deepagents agent</text>
  <text x="72" y="254" font-family="'Segoe UI',Helvetica,Arial,sans-serif" font-size="22" fill="#9DB2C8">inside VS Code &#8212; right next to Copilot.</text>

  <!-- footer chips -->
  <g font-family="'SF Mono','JetBrains Mono','Consolas',monospace" font-size="13" fill="#6F8298">
    <text x="72" y="300">chat participant</text>
    <text x="214" y="300" fill="#34506A">&#8226;</text>
    <text x="236" y="300">python sidecar</text>
    <text x="372" y="300" fill="#34506A">&#8226;</text>
    <text x="394" y="300">langstage-core</text>
  </g>

  <!-- ===== right: chat-panel mock ===== -->
  <g transform="translate(812,70)" filter="url(#soft)">
    <rect width="396" height="200" rx="14" fill="#0F2235" stroke="#23415C" stroke-width="1.5"/>
    <!-- title bar -->
    <rect width="396" height="38" rx="14" fill="#13314A"/>
    <rect y="24" width="396" height="14" fill="#13314A"/>
    <circle cx="24" cy="19" r="5" fill="#E06C75"/>
    <circle cx="44" cy="19" r="5" fill="#E5C07B"/>
    <circle cx="64" cy="19" r="5" fill="#56C28B"/>
    <text x="340" y="24" font-family="'SF Mono','Consolas',monospace" font-size="12" fill="#6F8298">CHAT</text>

    <!-- user bubble (right) -->
    <g transform="translate(150,58)">
      <rect width="220" height="34" rx="10" fill="#1C3A52"/>
      <text x="16" y="22" font-family="'Segoe UI',Arial,sans-serif" font-size="13" fill="#C7D6E6">fix the failing test</text>
    </g>

    <!-- assistant: @langstage -->
    <g transform="translate(20,108)">
      <circle cx="9" cy="9" r="8" fill="url(#accent)"/>
      <text x="28" y="13" font-family="'SF Mono','Consolas',monospace" font-size="13" fill="#9FE9DF">@langstage</text>
      <rect x="0" y="28" width="300" height="9" rx="4.5" fill="#27425C"/>
      <rect x="0" y="46" width="356" height="9" rx="4.5" fill="#27425C"/>
      <rect x="0" y="64" width="210" height="9" rx="4.5" fill="#27425C"/>
      <!-- tool chip -->
      <g transform="translate(0,82)">
        <rect width="150" height="22" rx="6" fill="#0C2A22" stroke="#34D6C8" stroke-width="1"/>
        <circle cx="15" cy="11" r="4" fill="#34D6C8"/>
        <text x="28" y="15" font-family="'SF Mono','Consolas',monospace" font-size="11" fill="#7FE3D6">run_tests &#10003;</text>
      </g>
    </g>
  </g>
</svg>
